<svg
    xmlns:svg="http://www.w3.org/2000/svg"
    xmlns="http://www.w3.org/2000/svg"
    id="svg54"
    width="1000mm"
    viewBox="0 0 1000 1000"
    version="1.2"
    height="1000mm">

    <g id="layers">
        <g id="mm" stroke="grey">
            <circle r="0.5" cy="500" cx="500"/>
            <circle r="5" cy="500" cx="500"/>
            <circle r="50" cy="500" cx="500"/>
            <circle r="500" cy="500" cx="500"/>
        </g>
        <g id="mm" stroke="grey">
            <circle r="0.5" cy="500" cx="500"/>
            <circle r="5" cy="500" cx="500"/>
            <circle r="50" cy="500" cx="500"/>
            <circle r="500" cy="500" cx="500"/>
        </g>
        <g id="mm" stroke="aqua">
            <circle r="0.5" cy="500" cx="500"/>
            <circle r="5" cy="500" cx="500"/>
            <circle r="50" cy="500" cx="500"/>
            <circle r="500" cy="500" cx="500"/>
        </g>
        <g id="mm" stroke="red">
            <circle r="0.5" cy="500" cx="500"/>
            <circle r="5" cy="500" cx="500"/>
            <circle r="50" cy="500" cx="500"/>
            <circle r="500" cy="500" cx="500"/>

            <text x="505" y="500" data-range="19-35" text-anchor="end">RED CIRCLE r=5</text>
            <text x="1000" y="500" data-range="92-121">RED/BLUE CIRCLE r=500/0.5</text>
        </g>
        <g id="m" stroke="blue">
            <circle r="0.5" cy="500" cx="500"/>
            <circle r="5" cy="500" cx="500"/>
            <circle r="50" cy="500" cx="500"/>
            <circle r="500" cy="500" cx="500"/>
            <text x="-727.625" y="2533.124">MONTAGNE ?</text>
            <path d="m -3743.96,4924.4704 218.203,-2483.3212 1488.9144,717.4039 320.8867,-2060.2366 988.33108,1434.8076 243.8739,-4212.4484 89.8483,-2244.1866 1822.63652,5260.9618 1989.4976,-55.1849 141.1901,1692.3374 1116.6856,1563.5724"/>
        </g>
        <g id="km" stroke="yellow">
            <circle r="0.5" cy="500" cx="500"/>
            <circle r="5" cy="500" cx="500"/>
            <circle r="50" cy="500" cx="500"/>
            <circle r="500" cy="500" cx="500"/>

            <ellipse
               ry="6356.752" rx="6378.137" cy="6856.752" cx="500"/>
            <ellipse
               ry="6368.752" rx="6390.137" cy="6856.752" cx="500"/>
            <ellipse
               ry="6406.752" rx="6428.137" cy="6856.752" cx="500"/>
            <ellipse
               ry="6436.752" rx="6458.137" cy="6856.752" cx="500"/>
            <ellipse
               ry="7056.752" rx="7078.137" cy="6856.752" cx="500"/>
        </g>
        <g id="Mm" stroke="green">
            <circle r="0.5" cy="500" cx="500"/>
            <circle r="5" cy="500" cx="500"/>
            <circle r="50" cy="500" cx="500"/>
            <circle r="500" cy="500" cx="500"/>
        </g>
        <g id="Gm" stroke="purple">
            <circle r="0.5" cy="500" cx="500"/>
            <circle r="5" cy="500" cx="500"/>
            <circle r="50" cy="500" cx="500"/>
            <circle r="500" cy="500" cx="500"/>
        </g>
        <g id="Tm" stroke="white">
            <circle r="0.5" cy="500" cx="500"/>
            <circle r="5" cy="500" cx="500"/>
            <circle r="50" cy="500" cx="500"/>
            <circle r="500" cy="500" cx="500"/>
        </g>
        <g id="Pm" stroke="orange">
            <circle r="0.5" cy="500" cx="500"/>
            <circle r="5" cy="500" cx="500"/>
            <circle r="50" cy="500" cx="500"/>
            <circle r="500" cy="500" cx="500"/>
        </g>
    </g>
</svg>
