<?xml version="1.0" encoding="UTF-8"?>
<svg xmlns="http://www.w3.org/2000/svg" version="1.1"
    id="title"
    width="139.2mm"
    height="9.6mm"
    viewBox="0 0 69.6 4.8">

    <g id="stroked" fill="none" stroke="white" stroke-width="0.4" stroke-linecap="round" stroke-linejoin="round" stroke-miterlimit="4">
        <path d="M 0.4,0.4 v 2.4 l 0.8,0.8 h 0.8"/>
        <path d="M 3.6,0.4 h 1.6 h -0.8 v 3.2 h -0.8 h 1.6"/>
        <path d="M 8.4,0.4 h -0.8 l -0.8,0.8 v 1.6 l 0.8,0.8 h 0.8 v -0.8"/>
        <path d="M 10,0.4 v 3.2 v -0.8 h 1.6 v 0.8 v -3.2"/>
        <path d="M 13.2,0.4 h 1.6 h -0.8 v 3.2"/>
        <path d="M 16.4,2 h 1.6"/>
        <path d="M 19.6,3.6 v -3.2 h 0.8 l 0.8,0.8 v 2.4"/>
        <path d="M 22.8,3.6 v -2.4 l 0.8,-0.8 l 0.8,0.8 v 2.4 v -0.8 h -1.6"/>
        <path d="M 26,3.6 v -3.2 h 0.8 l 0.8,0.8 v 2.4"/>
        <path d="M 29.2,0.4 v 2.4 l 0.8,0.8 h 0.8 v -2.4 l -0.8,-0.8 Z"/>
        <path d="M 34,0.4 h -0.8 l -0.8,0.8 l 1.6,1.6 l -0.8,0.8 h -0.8"/>
        <path d="M 37.2,0.4 h -0.8 l -0.8,0.8 v 0.8 h 0.8 h -0.8 v 0.8 l 0.8,0.8 h 0.8"/>
        <path d="M 40.4,0.4 h -0.8 l -0.8,0.8 v 1.6 l 0.8,0.8 h 0.8"/>
        <path d="M 42,0.4 v 2.4 l 0.8,0.8 h 0.8 v -2.4 l -0.8,-0.8 Z"/>
        <path d="M 45.2,3.6 v -3.2 h 0.8 l 0.8,0.8 v 2.4"/>
        <path d="M 48.4,0.4 v 3.2 h 0.8 l 0.8,-0.8 v -1.6 l -0.8,-0.8 Z"/>
        <path d="M 51.6,4.4 h 1.6"/>
        <path d="M 54.8,3.6 v -3.2 h 0.8 l 0.8,0.8 v 0.8 l -0.8,0.8 h -0.8 h 0.8 l 0.8,0.8"/>
        <path d="M 58,0.4 v 3.2 h 1.6 v -3.2"/>
        <path d="M 61.2,0.4 v 2.4 l 0.8,0.8 h 0.8"/>
        <path d="M 66,0.4 h -0.8 l -0.8,0.8 v 0.8 h 0.8 h -0.8 v 0.8 l 0.8,0.8 h 0.8"/>
        <path d="M 67.6,3.6 v -3.2 h 0.8 l 0.8,0.8 v 0.8 l -0.8,0.8 h -0.8 h 0.8 l 0.8,0.8"/>
    </g>
</svg>
