<svg version="1.1" id="title" xmlns="http://www.w3.org/2000/svg" xmlns:xlink="http://www.w3.org/1999/xlink" xml:space="preserve" x="0px" y="0px"
    enable-background="new 0 0 400 67.709" height="57.180443" width="376.74539">
    <g fill="none" stroke="white" stroke-linecap="round" stroke-linejoin="round" stroke-miterlimit="3">
        <g stroke-width="4">
            <line y2="42.166" x2="97.344002" y1="42.166" x1="88.676003"/>
            <polyline points="218.697,50.832 214.363,50.832 210.029,46.499 210.029,37.832 214.363,33.499 218.697,33.499"/>
            <polygon points="262.039,50.832 262.039,33.499 266.371,33.499 270.705,37.832 270.705,46.499 266.371,50.832"/>
            <line y2="42.166" x2="192.694" y1="42.166" x1="197.028"/>
            <polyline points="201.36,50.832 197.028,50.832 192.694,46.499 192.694,37.832 197.028,33.499 201.36,33.499"/>
            <line y2="42.166" x2="348.71701" y1="42.166" x1="353.052"/>
            <polyline points="357.385,50.832 353.052,50.832 348.717,46.499 348.717,37.832 353.052,33.499 357.385,33.499"/>
            <polyline points="45.337,33.499 41.002,33.499 36.671,37.832 36.671,46.499 41.002,50.832 45.337,50.832 45.337,46.499"/>
            <line y2="46.499001" x2="62.673" y1="46.499001" x1="54.005001"/>
            <line y2="33.499001" x2="62.673" y1="50.832001" x1="62.673"/>
            <line y2="50.832001" x2="54.005001" y1="33.499001" x1="54.005001"/>
            <line y2="33.499001" x2="23.666" y1="50.832001" x1="23.666"/>
            <line y2="33.499001" x2="28" y1="33.499001" x1="19.334"/>
            <line y2="50.832001" x2="19.334" y1="50.832001" x1="28"/>
            <polyline points="175.356,50.832 179.691,50.832 184.025,46.499 175.356,37.832 179.691,33.499 184.025,33.499"/>
            <line y2="50.832001" x2="75.676003" y1="33.499001" x1="75.676003"/>
            <line y2="33.499001" x2="80.008003" y1="33.499001" x1="71.342003"/>
            <polyline points="314.047,33.499 314.047,50.832 322.713,50.832 322.713,33.499"/>
            <polygon points="162.354,33.499 166.685,37.832 166.685,46.499 162.354,50.832 158.02,46.499 158.02,37.832"/>
            <line y2="46.499001" x2="132.01401" y1="46.499001" x1="123.349"/>
            <polyline points="132.014,50.832 132.014,37.832 127.683,33.499 123.349,37.832 123.349,50.832"/>
            <polyline points="1.997,33.499 1.997,46.499 6.331,50.832 10.663,50.832"/>
            <polyline points="331.381,33.499 331.381,46.499 335.715,50.832 340.049,50.832"/>
            <polyline points="106.012,50.832 106.012,33.499 110.344,33.499 114.678,37.832 114.678,50.832"/>
            <polyline points="140.685,50.832 140.685,33.499 145.017,33.499 149.351,37.832 149.351,50.832"/>
            <polyline points="244.699,50.832 244.699,33.499 249.034,33.499 253.368,37.832 253.368,50.832"/>
            <polygon points="227.365,46.499 227.365,33.499 231.697,33.499 236.031,37.832 236.031,50.832 231.697,50.832"/>
            <polyline points="296.71,46.499 301.041,46.499 305.376,42.166 305.376,37.832 301.041,33.499 296.71,33.499 296.71,50.832"/>
            <line y2="50.832001" x2="305.37601" y1="46.499001" x1="301.04099"/>
            <polyline points="366.056,46.499 370.387,46.499 374.722,42.166 374.722,37.832 370.387,33.499 366.056,33.499 366.056,50.832"/>
            <line y2="50.832001" x2="374.72198" y1="46.499001" x1="370.38699"/>
            <line y2="55.166" x2="288.039" y1="55.166" x1="279.37299"/>
        </g>
        <g stroke-width="2">
            <line y2="9.6669998" x2="240.33" y1="9.6669998" x1="244.662"/>
            <polyline points="248.996,18.334 244.662,18.334 240.33,14 240.33,5.334 244.662,1 248.996,1"/>
            <line y2="9.6669998" x2="108.163" y1="9.6669998" x1="112.497"/>
            <polyline points="116.831,18.334 112.497,18.334 108.163,14 108.163,5.334 112.497,1 116.831,1"/>
            <polyline points="218.662,1 214.33,1 209.996,5.334 209.996,14 214.33,18.334 218.662,18.334 218.662,14"/>
            <line y2="18.334" x2="274.996" y1="1" x1="274.996"/>
            <line y2="1" x2="279.32999" y1="1" x1="270.664"/>
            <line y2="14" x2="203.496" y1="14" x1="194.82899"/>
            <polyline points="203.496,18.334 203.496,5.334 199.163,1 194.829,5.334 194.829,18.334"/>
            <line y2="14" x2="131.99699" y1="14" x1="123.331"/>
            <polyline points="131.997,18.334 131.997,5.334 127.663,1 123.331,5.334 123.331,18.334"/>
            <line y2="9.6669998" x2="86.497002" y1="9.6669998" x1="77.831001"/>
            <polyline points="40.997,1 36.663,1 32.331,5.334 32.331,14 36.663,18.334 40.997,18.334 40.997,14"/>
            <line y2="14" x2="56.162998" y1="14" x1="47.497002"/>
            <line y2="1" x2="56.162998" y1="18.334" x1="56.162998"/>
            <line y2="18.334" x2="47.497002" y1="1" x1="47.497002"/>
            <line y2="1" x2="21.497" y1="18.334" x1="21.497"/>
            <line y2="1" x2="25.830999" y1="1" x1="17.163"/>
            <line y2="18.334" x2="17.163" y1="18.334" x1="25.830999"/>
            <line y2="18.334" x2="66.997002" y1="1" x1="66.997002"/>
            <line y2="1" x2="71.331001" y1="1" x1="62.662998"/>
            <polyline points="1.997,1 1.997,14 6.331,18.334 10.663,18.334"/>
            <polyline points="255.496,18.334 255.496,1 259.83,1 264.164,5.334 264.164,18.334"/>
            <polyline points="138.497,14 142.831,14 147.163,9.667 147.163,5.334 142.831,1 138.497,1 138.497,18.334"/>
            <line y2="18.334" x2="147.16299" y1="14" x1="142.83099"/>
            <polyline points="179.663,14 183.995,14 188.329,9.667 188.329,5.334 183.995,1 179.663,1 179.663,18.334"/>
            <line y2="18.334" x2="188.32899" y1="14" x1="183.995"/>
            <line y2="9.6669998" x2="164.495" y1="9.6669998" x1="168.82899"/>
            <polyline points="164.495,18.334 164.495,5.334 168.829,1 173.163,1"/>
            <polyline points="92.997,1 92.997,9.667 97.331,14 101.663,9.667 101.663,1"/>
            <line y2="14" x2="97.331001" y1="18.334" x1="97.331001"/>
            <polyline points="225.162,18.334 225.162,1 229.496,5.334 229.496,9.667"/>
            <polyline points="233.83,18.334 233.83,1 229.496,5.334"/>
        </g>
    </g>
</svg>
