<?xml version="1.0" encoding="UTF-8"?>
<svg xmlns="http://www.w3.org/2000/svg" version="1.1"
   viewBox="0 0 420 297"
   height="297mm"
   width="420mm">
 <g fill='none' stroke='#000000' stroke-linecap='round' stroke-linejoin='round' stroke-miterlimit='3' stroke-width='0.8'>
    <path fill='#ffffff' stroke='none' d="m 221.1,28.000 h 140 v 10 h -140 Z"/>
    <path d="m 222.3,29.6 v 4.8 l 1.6,1.6 h 1.6"/>
    <path d="m 228.7,29.6 h 3.2 -1.6 v 6.4 h -1.6 3.2"/>
    <path d="m 238.3,29.6 h -1.6 l -1.6,1.6 v 3.2 l 1.6,1.6 h 1.6 v -1.6"/>
    <path d="m 241.5,36 v -6.4 4.8 h 3.2 v -4.8 6.4"/>
    <path d="m 247.9,29.6 h 3.2 -1.6 v 6.4"/>
    <path d="m 254.3,32.8 h 3.2"/>
    <path d="m 260.7,36 v -6.4 h 1.6 l 1.6,1.6 v 4.8"/>
    <path d="m 267.1,36 v -4.8 l 1.6,-1.6 1.6,1.6 v 3.2 h -3.2 3.2 v 1.6"/>
    <path d="m 273.5,36 v -6.4 h 1.6 l 1.6,1.6 v 4.8"/>
    <path d="m 281.5,36 -1.6,-1.6 v -4.8 h 1.6 l 1.6,1.6 v 4.8 z"/>
    <path d="m 286.3,36 h 1.6 l 1.6,-1.6 -3.2,-3.2 1.6,-1.6 h 1.6"/>
    <path d="m 295.9,36 h -1.6 l -1.6,-1.6 v -1.6 h 1.6 -1.6 v -1.6 l 1.6,-1.6 h 1.6"/>
    <path d="m 302.3,36 h -1.6 l -1.6,-1.6 v -3.2 l 1.6,-1.6 h 1.6"/>
    <path d="m 307.1,36 -1.6,-1.6 v -4.8 h 1.6 l 1.6,1.6 v 4.8 z"/>
    <path d="m 311.9,36 v -6.4 h 1.6 l 1.6,1.6 v 4.8"/>
    <path d="m 318.3,36 v -6.4 h 1.6 l 1.6,1.6 v 3.2 l -1.6,1.6 z"/>
    <path d="m 324.7,37.6 h 3.2"/>
    <path d="m 331.1,36 v -6.4 h 1.6 l 1.6,1.6 v 1.6 l -1.6,1.6 h -1.6 1.6 l 1.6,1.6"/>
    <path d="m 337.5,29.6 v 6.4 h 3.2 v -6.4"/>
    <path d="m 343.9,29.6 v 4.8 l 1.6,1.6 h 1.6"/>
    <path d="m 353.5,36 h -1.6 l -1.6,-1.6 v -1.6 h 1.6 -1.6 v -1.6 l 1.6,-1.6 h 1.6"/>
    <path d="m 356.7,36 v -6.4 h 1.6 l 1.6,1.6 v 1.6 l -1.6,1.6 h -1.6 1.6 l 1.6,1.6"/>

    <path d="m 60.10376,79.004125 v 4 -2 h 299.792458 v 2 -4"/>

    <path fill="#ffffff" d="M 70.103756,96.003209 60.103755,106.00322 V 238.49731 H 187.77466 V 96.0035 Z"/>
    <path fill="#ffffff" d="m 223.38485,96.003209 -10,10 v 87.49434 H 359.89625 V 96.003209 Z"/>
    <path d="m 223.38485,96.003209 v 10 h -10"/>
    <path d="M 70.103756,96.003207 v 10 h -10"/>

    <path fill="#ffffff" d="m 213.38484,245.85817 v -14.92136 l 25.87819,-14.94092 16.17374,9.33797 -2e-5,14.92149 -25.87804,14.94092 z"/>
    <path d="m 215.00213,244.92662 4.04347,2.33474"/>
    <path d="m 220.66313,250.06026 v -3.73029 l 1.61749,0.9339 -1.2e-4,3.73029"/>
    <path d="m 227.1326,242.60478 -2.42581,-1.40084"/>
    <path d="m 213.38484,230.93681 16.17387,9.33812 v 14.92134 -14.92134 l 25.87806,-14.94107"/>
    <path d="m 248.15895,221.13315 -25.87803,14.94102 -2.5e-4,3.72901 -1.61759,-0.93387 5.3e-4,-3.72899 25.87802,-14.94104"/>
    <path d="m 237.64552,220.66462 1.61746,0.93385 -0.80872,-0.46689 -16.17298,9.33782 0.80912,0.46679 -1.61746,-0.93385"/>
    <path d="m 225.51419,230.46924 2.42597,-1.40071"/>
    <path d="m 242.49668,238.39927 5.3e-4,6.52873 10.51291,-6.06989 5.3e-4,-6.52793 z"/>

    <path fill="#ffffff" d="m 291.10712,249.79919 v -14.904 l 29.95941,-17.28957 12.14149,7.00683 -3e-5,14.904 -29.95943,17.2896 z"/>
    <path d="m 299.46422,239.71808 -2e-5,14.904"/>
    <path d="m 297.88741,238.8081 -2e-5,14.904"/>
    <path d="m 296.46826,237.98911 -2e-5,14.904"/>
    <path d="m 294.89148,237.07915 -2e-5,14.904"/>
    <path d="m 297.72954,242.35212 4.57274,2.63893"/>
    <path d="m 297.72954,243.80617 4.57274,2.63893"/>
    <path d="m 297.72954,245.8055 4.57274,2.63893"/>
    <path d="m 297.72954,247.25955 4.57274,2.63893"/>
    <path d="m 292.053,239.07616 4.57274,2.63893"/>
    <path d="m 292.053,240.53021 4.57274,2.63893"/>
    <path d="m 292.053,242.52954 4.57274,2.63893"/>
    <path d="m 292.053,243.98359 4.57274,2.63893"/>
    <path d="m 291.10712,234.89519 12.14144,7.00685 v 14.90401 -14.90401 l 29.95946,-17.28959"/>
    <path d="M 295.79633,232.14103 307.9814,239.173"/>
    <path d="m 311.94131,236.9084 -12.18507,-7.03197"/>
    <path d="m 315.94174,234.66716 -12.18507,-7.03197"/>
    <path d="m 320.51366,232.02775 -12.18507,-7.03197"/>
    <path d="m 324.42386,229.73208 -12.18507,-7.03197"/>
    <path d="M 328.36703,227.45647 316.18196,220.4245"/>
    <path d="m 304.35232,256.16908 3e-5,-14.90403"/>
    <path d="m 305.61377,255.44089 3e-5,-14.90403"/>
    <path d="m 306.87522,254.7129 3e-5,-14.90403"/>
    <path d="m 308.13666,253.98491 3e-5,-14.90403"/>
    <path d="m 309.39812,253.25693 3e-5,-14.90403"/>
    <path d="m 310.65957,252.52917 3e-5,-14.90403"/>
    <path d="m 311.92101,251.8012 3e-5,-14.90403"/>
    <path d="m 313.18246,251.073 3e-5,-14.90403"/>
    <path d="m 314.44391,250.34503 3e-5,-14.90403"/>
    <path d="m 315.70536,249.61703 3e-5,-14.90403"/>
    <path d="m 316.96681,248.88905 3e-5,-14.90403"/>
    <path d="m 318.22826,248.16107 3e-5,-14.90403"/>
    <path d="m 319.48971,247.43309 3e-5,-14.90403"/>
    <path d="m 320.75116,246.70509 3e-5,-14.90403"/>
    <path d="m 322.0126,245.97712 3e-5,-14.90403"/>
    <path d="m 323.27406,245.24913 3e-5,-14.90403"/>
    <path d="m 324.5355,244.52116 3e-5,-14.90403"/>
    <path d="m 325.79698,243.79318 3e-5,-14.90403"/>
    <path d="m 327.0584,243.06518 3e-5,-14.90403"/>
    <path d="m 328.31986,242.3372 3e-5,-14.90403"/>
    <path d="m 329.58131,241.60922 3e-5,-14.90403"/>
    <path d="m 330.84274,240.88124 3e-5,-14.90403"/>
    <path d="m 332.10419,240.15326 3e-5,-14.90403"/>
  </g>
</svg>
